<?xml version="1.0" encoding="UTF-8"?>
<svg id="Capa_1" xmlns="http://www.w3.org/2000/svg" version="1.1" viewBox="0 0 862.42 122.24">
  <!-- Generator: Adobe Illustrator 29.4.0, SVG Export Plug-In . SVG Version: 2.1.0 Build 152)  -->
  <defs>
    <style>
      .st0 {
        fill: #d8552b;
      }

      .st1 {
        fill: #161616;
      }
    </style>
  </defs>
  <path class="st0" d="M855.69,22.15c.1,5.11-4.29,9.49-9.46,9.47-5.2-.02-9.38-4.19-9.47-9.36-.09-5.14,4.19-9.45,9.19-9.58,5.33-.15,9.84,4.33,9.74,9.48M846.25,14.57c-4.02-.12-7.57,3.4-7.61,7.48-.04,4.18,3.51,7.71,7.6,7.68,4.21-.04,7.59-3.41,7.59-7.64,0-4.13-3.42-7.52-7.57-7.52"/>
  <path class="st0" d="M842.19,17.22s.06-.03.07-.03c1.89.03,3.78.05,5.67.09,1.41.03,2.6,1.47,2.33,3.18-.19,1.21-1.02,2.01-2.35,2.31-.05.01-.1.02-.15.03,0,.03,0,.06.02.06.64.28,1.04.8,1.38,1.37.58.97,1.16,1.94,1.77,2.96-.13.01-.22.03-.31.03-.64,0-1.28,0-1.92,0-.24,0-.35-.08-.45-.29-.39-.76-.79-1.5-1.2-2.25-.08-.16-.19-.3-.29-.45-.57-.93-1.42-1.25-2.51-1.13v4.09h-2.06v-9.99ZM844.26,21.54c.96-.05,1.9-.06,2.84-.16.59-.06.99-.59,1.04-1.18.05-.54-.29-1.05-.84-1.28-.06-.02-.12-.06-.18-.06-.95-.05-1.9-.09-2.86-.13v2.81Z"/>
  <path class="st0" d="M829.16,65.14l-60.87,49.68h32.83l47.35-39.63c4.23-3.49,5.5-6.28,5.5-9.91,0-3.07-.71-5.72-4.51-8.93l-50.31-42.98h-32.83l62.85,51.77Z"/>
  <path class="st0" d="M774.47,65.14l-60.87,49.68h32.83l47.35-39.63c4.23-3.49,5.5-6.28,5.5-9.91,0-3.07-.71-5.72-4.51-8.93l-50.31-42.98h-32.83l62.85,51.77Z"/>
  <path class="st0" d="M719.79,65.14l-60.87,49.68h32.83l47.35-39.63c4.23-3.49,5.5-6.28,5.5-9.91,0-3.07-.71-5.72-4.51-8.93l-50.31-42.98h-32.84l62.85,51.77Z"/>
  <polygon class="st1" points="227.06 64.1 287.87 28.99 287.87 99.21 227.06 64.1"/>
  <path class="st1" d="M17.65,108.06c-2.54,0-4.72-1.45-4.72-4.35,0-1.21.61-2.42,1.69-3.51L83.44,28H14.02v-7.86h77.89c2.54,0,4.84,1.45,4.84,4.35,0,1.21-.73,2.42-1.81,3.51L26.24,100.2h68.45v7.86H17.65Z"/>
  <path class="st1" d="M119.12,31.87v76.19h-7.74V24.37c0-3.27,1.69-5.32,4.47-5.32,1.33,0,2.66.6,3.99,2.06l71.6,74.98V19.89h7.74v84.17c0,3.27-1.81,5.08-4.35,5.08-1.45,0-3.02-.85-4.23-2.06L119.12,31.87Z"/>
  <path class="st0" d="M355.69,84.96v-21.53h30.36c7.5,0,11.97-4.11,11.97-10.52s-4.47-10.52-11.97-10.52h-41.12v65.67h-22.25V20.14h63.37c21.29,0,33.86,12.46,33.86,32.05s-12.58,32.77-33.86,32.77h-30.36Z"/>
  <path class="st0" d="M503.72,108.06l-20.56-23.46h-21.77v-18.75h31.57c7.38,0,11.85-4.6,11.85-11.73s-4.47-11.73-11.85-11.73h-42.33v65.67h-22.25V20.14h64.58c21.16,0,33.74,12.94,33.74,33.14,0,14.39-6.77,24.07-17.54,28.42l26.24,26.36h-31.69Z"/>
  <path class="st0" d="M580.52,108.06c-25.52,0-44.26-19.35-44.26-44.87s18.75-43.06,44.26-43.06h22.13c26.24,0,44.39,17.54,44.39,43.06s-18.63,44.87-44.39,44.87h-22.13ZM602.65,85.68c13.06,0,22.13-8.95,22.13-21.41s-9.19-21.89-22.13-21.89h-22.13c-12.58,0-21.89,9.31-21.89,21.89s9.07,21.41,21.89,21.41h22.13Z"/>
</svg>